<svg width="646" height="140" viewBox="0 0 646 140" fill="none" xmlns="http://www.w3.org/2000/svg">
<path d="M189.705 58.8186L189.781 67.5183L184.561 67.5638C180.841 67.5963 177.933 66.7216 175.838 64.9399C173.742 63.1181 172.676 60.1473 172.64 56.0274L172.523 42.7079L168.444 42.7435L168.369 34.2239L172.449 34.1883L172.378 26.0286L182.637 25.939L182.709 34.0987L189.428 34.0401L189.503 42.5598L182.783 42.6184L182.9 56.0579C182.909 57.0578 183.155 57.7757 183.639 58.2115C184.123 58.6473 184.925 58.8603 186.045 58.8505L189.705 58.8186ZM226.903 49.9137C226.912 50.8736 226.86 51.8741 226.75 52.9151L203.53 53.1177C203.709 55.1963 204.383 56.7904 205.552 57.9003C206.762 58.9698 208.226 59.497 209.946 59.482C212.506 59.4597 214.277 58.3642 215.258 56.1955L226.177 56.1002C225.637 58.305 224.634 60.2939 223.169 62.0667C221.745 63.8392 219.937 65.235 217.746 66.2542C215.554 67.2734 213.099 67.7948 210.379 67.8185C207.099 67.8472 204.173 67.1727 201.601 65.7951C199.029 64.4175 197.011 62.435 195.549 59.8477C194.086 57.2603 193.34 54.2267 193.309 50.7468C193.279 47.267 193.952 44.221 195.33 41.6089C196.747 38.9964 198.729 36.979 201.277 35.5567C203.825 34.1344 206.759 33.4088 210.078 33.3798C213.318 33.3516 216.204 34.0064 218.736 35.3444C221.268 36.6823 223.245 38.6052 224.666 41.1128C226.128 43.6202 226.874 46.5538 226.903 49.9137ZM216.38 47.3054C216.365 45.5455 215.753 44.1507 214.544 43.1213C213.335 42.0918 211.83 41.5849 210.03 41.6006C208.31 41.6156 206.855 42.1283 205.663 43.1387C204.512 44.1488 203.805 45.5751 203.541 47.4174L216.38 47.3054ZM252.266 66.973L245.765 57.7294L240.446 67.0761L229.347 67.173L240.237 49.9773L228.755 33.6969L240.274 33.5964L246.775 42.78L252.094 33.4932L263.193 33.3963L252.121 50.3536L263.785 66.8724L252.266 66.973ZM286.322 57.9754L286.398 66.6751L281.178 66.7207C277.458 66.7531 274.551 65.8785 272.455 64.0967C270.359 62.2749 269.293 59.3041 269.257 55.1843L269.141 41.8648L265.061 41.9004L264.987 33.3807L269.066 33.3451L268.995 25.1854L279.255 25.0959L279.326 33.2556L286.046 33.1969L286.12 41.7166L279.4 41.7752L279.518 55.2147C279.526 56.2147 279.773 56.9326 280.257 57.3684C280.74 57.8041 281.542 58.0172 282.662 58.0074L286.322 57.9754ZM321.993 32.7632C324.593 32.7405 326.918 33.2602 328.967 34.3224C331.056 35.3842 332.69 36.97 333.869 39.0798C335.047 41.1896 335.65 43.7444 335.676 46.7443L335.846 66.2436L329.066 66.3028L328.905 47.8235C328.879 44.8636 328.119 42.6101 326.626 41.0631C325.132 39.4761 323.105 38.6937 320.545 38.7161C317.985 38.7384 315.952 39.5562 314.446 41.1694C312.98 42.7422 312.26 45.0086 312.286 47.9685L312.447 66.4478L305.607 66.5075L305.319 33.4487L312.158 33.389L312.191 37.1689C313.299 35.7992 314.71 34.7268 316.423 33.9518C318.177 33.1765 320.033 32.7803 321.993 32.7632ZM358.915 66.5823C355.795 66.6095 352.969 65.9342 350.437 64.5562C347.904 63.1382 345.907 61.1556 344.444 58.6083C342.982 56.0209 342.236 53.0273 342.206 49.6275C342.177 46.2676 342.891 43.2812 344.348 40.6684C345.805 38.0556 347.808 36.0381 350.355 34.6158C352.903 33.1935 355.757 32.4685 358.917 32.441C362.077 32.4134 364.943 33.0884 367.515 34.466C370.087 35.8436 372.124 37.8259 373.627 40.4129C375.129 42.9999 375.895 45.9733 375.925 49.3332C375.954 52.6931 375.22 55.6796 373.723 58.2927C372.226 60.9059 370.163 62.944 367.536 64.407C364.948 65.8296 362.074 66.5547 358.915 66.5823ZM358.863 60.6425C360.623 60.6272 362.259 60.1929 363.772 59.3396C365.324 58.486 366.573 57.2151 367.518 55.5268C368.464 53.8385 368.926 51.7944 368.905 49.3945C368.884 46.9945 368.406 44.9786 367.472 43.3467C366.538 41.6748 365.307 40.4255 363.779 39.5988C362.252 38.7721 360.608 38.3664 358.849 38.3818C357.089 38.3972 355.452 38.8314 353.94 39.6847C352.467 40.5376 351.298 41.8078 350.433 43.4954C349.567 45.143 349.145 47.1668 349.166 49.5667C349.197 53.1266 350.121 55.8786 351.938 57.8228C353.795 59.7267 356.103 60.6666 358.863 60.6425ZM380.405 49.1741C380.376 45.8542 381.031 42.9084 382.368 40.3366C383.746 37.7645 385.608 35.7682 387.956 34.3476C390.343 32.8867 392.997 32.1436 395.917 32.1181C398.077 32.0992 400.201 32.5607 402.289 33.5025C404.417 34.404 406.108 35.6293 407.362 37.1784L407.222 21.219L414.122 21.1588L414.51 65.5571L407.61 65.6173L407.566 60.6375C406.46 62.2472 404.912 63.5808 402.921 64.6382C400.97 65.6953 398.715 66.235 396.155 66.2573C393.275 66.2824 390.629 65.5855 388.216 64.1665C385.844 62.7071 383.946 60.6836 382.523 58.0959C381.14 55.4679 380.434 52.494 380.405 49.1741ZM407.465 49.0579C407.445 46.778 406.948 44.8023 405.973 43.1307C405.039 41.4588 403.808 40.1895 402.28 39.3228C400.752 38.4561 399.109 38.0304 397.349 38.0458C395.589 38.0612 393.953 38.5155 392.44 39.4087C390.928 40.2619 389.699 41.5327 388.754 43.221C387.848 44.869 387.405 46.8329 387.425 49.1128C387.445 51.3927 387.922 53.3887 388.857 55.1006C389.832 56.8121 391.084 58.1212 392.612 59.0279C394.179 59.8943 395.823 60.32 397.543 60.305C399.303 60.2896 400.939 59.8353 402.451 58.9421C403.964 58.0488 405.172 56.7582 406.078 55.0703C407.023 53.342 407.485 51.3379 407.465 49.0579ZM453.641 47.8749C453.652 49.1149 453.581 50.2356 453.43 51.2369L428.171 51.4573C428.394 54.0955 429.393 56.2069 431.166 57.7914C432.94 59.376 435.107 60.1571 437.667 60.1348C441.347 60.1027 443.933 58.5401 445.427 55.4469L452.806 55.3825C451.833 58.4311 450.035 60.9469 447.412 62.9299C444.829 64.8725 441.597 65.8607 437.717 65.8946C434.558 65.9222 431.712 65.247 429.179 63.869C426.687 62.4507 424.71 60.4679 423.247 57.9206C421.825 55.3329 421.098 52.3391 421.069 48.9392C421.039 45.5394 421.693 42.5535 423.031 39.9818C424.408 37.3696 426.33 35.3528 428.798 33.9312C431.306 32.5093 434.18 31.7842 437.419 31.7559C440.539 31.7287 443.325 32.3844 445.777 33.723C448.229 35.0617 450.145 36.965 451.527 39.4331C452.908 41.8611 453.613 44.6751 453.641 47.8749ZM446.482 45.7773C446.42 43.2578 445.503 41.2457 443.729 39.7411C441.956 38.2365 439.77 37.4956 437.17 37.5183C434.81 37.5389 432.797 38.3165 431.13 39.8511C429.463 41.3457 428.481 43.3743 428.183 45.937L446.482 45.7773ZM185.181 118.04C182.261 118.066 179.657 117.589 177.368 116.608C175.08 115.628 173.268 114.284 171.933 112.576C170.598 110.827 169.841 108.874 169.662 106.715L179.801 106.627C179.932 107.786 180.48 108.721 181.446 109.433C182.412 110.144 183.595 110.494 184.995 110.482C186.275 110.471 187.253 110.222 187.929 109.736C188.644 109.21 188.999 108.547 188.992 107.747C188.983 106.787 188.477 106.091 187.473 105.66C186.469 105.189 184.845 104.683 182.6 104.142C180.195 103.603 178.19 103.041 176.585 102.455C174.979 101.829 173.591 100.861 172.419 99.551C171.248 98.2012 170.652 96.3863 170.632 94.1064C170.615 92.1865 171.12 90.442 172.146 88.873C173.212 87.2636 174.761 85.99 176.793 85.0523C178.865 84.1142 181.321 83.6327 184.161 83.6079C188.361 83.5713 191.67 84.5824 194.088 86.6414C196.546 88.7001 197.97 91.4477 198.36 94.8845L188.88 94.9672C188.71 93.8086 188.182 92.8932 187.296 92.2209C186.45 91.5483 185.327 91.218 183.927 91.2303C182.727 91.2407 181.809 91.4888 181.174 91.9743C180.538 92.4199 180.223 93.0427 180.23 93.8426C180.238 94.8026 180.745 95.5182 181.749 95.9895C182.793 96.4604 184.397 96.9264 186.561 97.3875C189.047 98.0058 191.072 98.6282 192.638 99.2546C194.203 99.8409 195.571 100.829 196.744 102.219C197.955 103.568 198.592 105.403 198.652 107.722C198.669 109.682 198.124 111.447 197.018 113.017C195.951 114.546 194.382 115.76 192.309 116.658C190.277 117.556 187.901 118.017 185.181 118.04ZM209.851 80.3836C208.051 80.3993 206.566 79.8923 205.397 78.8624C204.268 77.7922 203.696 76.4772 203.683 74.9172C203.669 73.3173 204.217 71.9925 205.328 70.9427C206.479 69.8526 207.954 69.2998 209.754 69.284C211.514 69.2687 212.958 69.7961 214.088 70.8663C215.257 71.8961 215.848 73.211 215.862 74.811C215.876 76.3709 215.307 77.6959 214.157 78.786C213.046 79.8357 211.611 80.3683 209.851 80.3836ZM214.981 83.819L215.273 117.298L205.013 117.387L204.721 83.9085L214.981 83.819ZM265.131 83.0213C269.291 82.985 272.602 84.2162 275.064 86.7148C277.566 89.213 278.836 92.7021 278.875 97.1819L279.046 116.741L268.846 116.83L268.688 98.6509C268.669 96.491 268.074 94.8361 266.904 93.6863C265.774 92.4961 264.209 91.9097 262.209 91.9272C260.209 91.9446 258.634 92.5584 257.485 93.7685C256.375 94.9382 255.829 96.603 255.848 98.7629L256.007 116.942L245.807 117.031L245.648 98.8519C245.63 96.692 245.035 95.0371 243.865 93.8873C242.735 92.6971 241.169 92.1108 239.17 92.1282C237.17 92.1457 235.595 92.7594 234.445 93.9695C233.336 95.1392 232.79 96.8041 232.809 98.964L232.968 117.143L222.708 117.233L222.416 83.7541L232.675 83.6646L232.712 87.8644C233.74 86.4554 235.09 85.3436 236.763 84.5289C238.436 83.6743 240.332 83.2377 242.452 83.2192C244.972 83.1972 247.216 83.7177 249.186 84.7805C251.195 85.843 252.769 87.3694 253.906 89.3595C255.05 87.5095 256.617 85.9957 258.607 84.8183C260.596 83.6409 262.771 83.0419 265.131 83.0213ZM291.058 79.6749C289.259 79.6906 287.774 79.1836 286.605 78.1537C285.476 77.0836 284.904 75.7685 284.891 74.2086C284.877 72.6086 285.425 71.2838 286.536 70.234C287.686 69.144 289.162 68.5911 290.962 68.5754C292.722 68.56 294.166 69.0874 295.296 70.1576C296.465 71.1874 297.056 72.5023 297.07 74.1023C297.084 75.6622 296.515 76.9872 295.365 78.0773C294.254 79.127 292.818 79.6596 291.058 79.6749ZM296.189 83.1103L296.481 116.589L286.221 116.679L285.929 83.1998L296.189 83.1103ZM313.788 72.0363L314.175 116.435L303.916 116.524L303.528 72.1258L313.788 72.0363ZM319.424 99.5882C319.394 96.1483 320.008 93.1228 321.265 90.5118C322.562 87.9003 324.325 85.8849 326.552 84.4654C328.78 83.0459 331.274 82.3241 334.034 82.3C336.394 82.2794 338.458 82.7414 340.226 83.686C342.034 84.6303 343.425 85.8782 344.399 87.4298L344.357 82.6899L354.617 82.6004L354.909 116.079L344.65 116.169L344.608 111.429C343.622 112.998 342.233 114.27 340.441 115.245C338.69 116.221 336.634 116.719 334.274 116.739C331.554 116.763 329.068 116.085 326.816 114.704C324.564 113.284 322.766 111.279 321.423 108.691C320.12 106.062 319.454 103.028 319.424 99.5882ZM344.504 99.4293C344.481 96.8694 343.744 94.8558 342.291 93.3884C340.878 91.9207 339.151 91.1957 337.112 91.2135C335.072 91.2313 333.338 91.9864 331.911 93.479C330.524 94.9311 329.841 96.9372 329.864 99.4971C329.886 102.057 330.604 104.091 332.017 105.598C333.47 107.066 335.216 107.791 337.256 107.773C339.296 107.755 341.009 107 342.396 105.508C343.824 104.015 344.526 101.989 344.504 99.4293ZM372.348 88.0259C373.532 86.1755 375.019 84.7224 376.81 83.6668C378.6 82.5711 380.596 82.0137 382.795 81.9945L382.89 92.8541L380.07 92.8787C377.51 92.901 375.595 93.4777 374.325 94.6089C373.055 95.7 372.432 97.6255 372.456 100.385L372.591 115.925L362.332 116.014L362.039 82.5356L372.299 82.4461L372.348 88.0259ZM392.832 78.7868C391.032 78.8025 389.548 78.2954 388.379 77.2656C387.249 76.1954 386.678 74.8803 386.664 73.3204C386.65 71.7205 387.199 70.3956 388.309 69.3459C389.46 68.2558 390.935 67.7029 392.735 67.6872C394.495 67.6718 395.94 68.1992 397.069 69.2694C398.238 70.2993 398.83 71.6142 398.844 73.2141C398.857 74.774 398.289 76.0991 397.138 77.1891C396.027 78.2389 394.592 78.7714 392.832 78.7868ZM397.962 82.2221L398.254 115.701L387.995 115.79L387.703 82.3117L397.962 82.2221ZM424.273 106.773L424.349 115.473L419.129 115.519C415.409 115.551 412.501 114.676 410.406 112.895C408.31 111.073 407.244 108.102 407.208 103.982L407.091 90.6628L403.012 90.6984L402.937 82.1787L407.017 82.1431L406.946 73.9834L417.205 73.8939L417.277 82.0536L423.996 81.9949L424.071 90.5146L417.351 90.5733L417.468 104.013C417.477 105.013 417.723 105.731 418.207 106.166C418.691 106.602 419.493 106.815 420.613 106.805L424.273 106.773ZM463.97 81.6461L443.402 131.207L432.362 131.304L439.893 114.197L425.991 81.9775L437.451 81.8775L445.373 102.749L452.87 81.743L463.97 81.6461Z" fill="url(#paint0_linear_140_2)"/>
<defs>
<linearGradient id="paint0_linear_140_2" x1="167" y1="21.7153" x2="482.39" y2="106.402" gradientUnits="userSpaceOnUse">
<stop stop-color="#FF006F"/>
<stop offset="1" stop-color="#FFEA00"/>
</linearGradient>
</defs>
</svg>
